<?xml version="1.0" encoding="utf-8"?>
<!-- Generator: Adobe Illustrator 23.0.2, SVG Export Plug-In . SVG Version: 6.00 Build 0)  -->
<svg version="1.1" id="Capa_1" xmlns="http://www.w3.org/2000/svg" xmlns:xlink="http://www.w3.org/1999/xlink" x="0px" y="0px"
	 viewBox="0 0 248.2 248.2" style="enable-background:new 0 0 248.2 248.2;" xml:space="preserve">
<style type="text/css">
	.st0{fill:#2449F2;}
	.st1{fill:#FFFFFF;}
</style>
<g>
	<g>
		<g id="Capa_1-2">
			
				<image style="overflow:visible;opacity:0.2;enable-background:new    ;" width="269" height="269" xlink:href="DAE38DAF.png"  transform="matrix(1 0 0 1 -6.79 -7.2)">
			</image>
			<path class="st0" d="M15,0h218.2c8.3,0,15,6.7,15,15v218.2c0,8.3-6.7,15-15,15H15c-8.3,0-15-6.7-15-15V15C0,6.7,6.7,0,15,0z"/>
			<path class="st1" d="M146.1,167.3h-33.8c-2.3,0-4.2-1.9-4.2-4.2v-18.2l-4.3-4.3c-1.3-1.3-2.8-2.2-4.5-2.7
				c-2.9-0.9-5.8-1.5-8.8-1.8c-2.6-0.3-5.2-0.4-7.8-0.4c-3,0-5.9,0.7-8.6,2c-3.3,1.5-6.2,3.7-8.7,6.4c-2.3,2.7-4.3,5.6-5.9,8.8
				c-2.3,4.2-4.5,8.2-9.1,8.5c-1.4,0.1-2.7-0.2-4-0.9c-3.3-1.7-5.4-5.2-5.4-8.9c-0.2-10.7,2.4-21.2,7.6-30.6
				c14.8-26.6,44.8-31.7,52.8-32.6l5.8-6.1c0.9-0.9,2.1-1.4,3.4-1.4h37.2l8.1,8.1c4.2,4.2,10.9,4.8,15.8,1.3l4.4-3.1h23.6
				c4.3,0,7.7,3.5,7.7,7.7v39c0,4.3-3.5,7.7-7.7,7.7H176l-4-4c-4-4-10.5-4-14.5,0l-7.2,7.2v18.2
				C150.4,165.4,148.5,167.3,146.1,167.3C146.2,167.3,146.1,167.3,146.1,167.3z M115.2,160.3h28.1v-16.6c0-1.1,0.4-2.2,1.2-3l8-8
				c6.7-6.7,17.7-6.7,24.4,0l1.9,1.9h20.7c0.4,0,0.7-0.3,0.7-0.7c0,0,0,0,0,0v-39c0-0.4-0.3-0.7-0.7-0.7l0,0h-21.4l-2.6,1.9
				c-7.7,5.5-18.2,4.6-24.8-2.1l-6.1-6.1h-33.2l-5.7,6c-0.8,0.8-1.8,1.3-2.9,1.4c-5.6,0.5-34.4,4.4-48.2,29.1
				c-4.5,8.3-6.8,17.7-6.7,27.1c0,1.1,0.6,2.2,1.5,2.7c0.1,0.1,0.3,0.1,0.5,0.1c0.7,0,2.4-3.2,3.3-4.9c1.9-3.7,4.2-7.1,6.9-10.2
				c3.1-3.3,6.7-6,10.8-7.9c3.6-1.7,7.5-2.7,11.5-2.7c2.9-0.1,5.9,0,8.8,0.4c3.4,0.4,6.7,1.1,10,2.1c2.8,0.9,5.4,2.4,7.5,4.5
				l5.1,5.1c0.8,0.8,1.2,1.9,1.2,3L115.2,160.3z M109,145.7L109,145.7z"/>
		</g>
	</g>
</g>
</svg>
