<?xml version="1.0" encoding="utf-8"?>
<!-- Generator: Adobe Illustrator 23.0.2, SVG Export Plug-In . SVG Version: 6.00 Build 0)  -->
<svg version="1.1" id="Capa_1" xmlns="http://www.w3.org/2000/svg" xmlns:xlink="http://www.w3.org/1999/xlink" x="0px" y="0px"
	 viewBox="0 0 248.2 248.2" style="enable-background:new 0 0 248.2 248.2;" xml:space="preserve">
<style type="text/css">
	.st0{fill:#3692FF;}
	.st1{fill:#FFFFFF;}
</style>
<g>
	<g>
		<g id="Capa_1-2">
			<path class="st0" d="M15,0h218.2c8.3,0,15,6.7,15,15v218.2c0,8.3-6.7,15-15,15H15c-8.3,0-15-6.7-15-15V15C0,6.7,6.7,0,15,0z"/>
			<path class="st1" d="M132.5,191.7c16.3-16.2,20.3-41.1,10-61.6c-1-1.9-3.3-2.6-5.2-1.6c-1.8,1-2.6,3.2-1.7,5.1
				c11.3,22.6,2.1,50.1-20.5,61.4c-22.6,11.3-50.1,2.1-61.4-20.5c-11.3-22.6-2.1-50.1,20.5-61.4c12.7-6.3,27.6-6.4,40.4-0.3
				c1.9,1,4.2,0.4,5.2-1.5c1-1.9,0.4-4.2-1.5-5.2c-0.1-0.1-0.3-0.1-0.4-0.2c-26.6-12.8-58.5-1.7-71.3,24.9
				C33.8,157.2,45,189.2,71.5,202C92,211.9,116.4,207.7,132.5,191.7L132.5,191.7z"/>
			<path class="st1" d="M70.8,177.9c-9.3-9.3-9.3-24.5,0-33.8c9.3-9.3,24.5-9.3,33.8,0c9.3,9.3,9.3,24.5,0,33.8
				C95.2,187.2,80.1,187.2,70.8,177.9z M76.2,172.5c6.4,6.3,16.6,6.3,23,0c6.3-6.4,6.3-16.6,0-23c-6.3-6.3-16.6-6.3-22.9,0
				C69.8,155.8,69.8,166.1,76.2,172.5C76.2,172.5,76.2,172.5,76.2,172.5z"/>
			<path class="st1" d="M141.8,134.5l63.9-63.9c0.7-0.7,1.1-1.7,1.1-2.7V44.8c0-2.1-1.7-3.8-3.8-3.8c0,0,0,0-0.1,0h-29.3
				c-2.1,0-3.8,1.7-3.8,3.8c0,0,0,0,0,0v4.1h-12.1c-2.1,0-3.8,1.7-3.8,3.8v14.8h-14.8c-2.1,0-3.8,1.7-3.8,3.8c0,0,0,0,0,0v14.8
				h-14.8c-2.1,0-3.8,1.7-3.8,3.8v13.5l-3,3c-1.6,1.4-1.7,3.9-0.3,5.4s3.9,1.7,5.4,0.3c0.1-0.1,0.2-0.2,0.2-0.2l4.2-4.2
				c0.7-0.7,1.1-1.7,1.1-2.7V93.9h14.8c2.1,0,3.8-1.7,3.8-3.8V75.2h14.8c2.1,0,3.8-1.7,3.8-3.8c0,0,0,0,0,0V56.6h12.1
				c2.1,0,3.8-1.7,3.8-3.8c0,0,0,0,0,0v-4.2h21.6v17.6L136.4,129c-1.5,1.5-1.4,4,0.1,5.4C138,135.9,140.3,135.9,141.8,134.5
				L141.8,134.5z"/>
		</g>
	</g>
</g>
</svg>
