<svg xmlns="http://www.w3.org/2000/svg" viewBox="0 0 80.16 67.26"><defs><style>.cls-1{fill:#fff;}</style></defs><title>icon_category-perfillbco</title><g id="Capa_2" data-name="Capa 2"><g id="Capa_1-2" data-name="Capa 1"><rect class="cls-1" x="35.91" y="43.12" width="2.5" height="24.14"/><path class="cls-1" d="M46.25,8.4h-2.5V2.5H38.41V8.4h-2.5V1.25A1.25,1.25,0,0,1,37.16,0H45a1.25,1.25,0,0,1,1.25,1.25Z"/><rect class="cls-1" x="43.75" y="43.12" width="2.5" height="24.14"/><path class="cls-1" d="M70.21,44.3H26.35a1.24,1.24,0,0,1-1.25-1.25v-8h2.5V41.8h42l7.71-9.65L69.6,22.52H58.8V20H70.21a1.23,1.23,0,0,1,1,.47l8.7,10.88a1.23,1.23,0,0,1,0,1.56l-8.7,10.9a1.26,1.26,0,0,1-1,.47"/><path class="cls-1" d="M53.81,31.4H10a1.25,1.25,0,0,1-1-.46L.28,20.17a1.25,1.25,0,0,1,0-1.56L9,7.71a1.25,1.25,0,0,1,1-.47H53.81a1.25,1.25,0,0,1,1.25,1.25V30.15a1.25,1.25,0,0,1-1.25,1.25M10.55,28.9h42V9.74h-42l-7.7,9.64Z"/></g></g></svg>