<svg xmlns="http://www.w3.org/2000/svg" viewBox="0 0 112.49 116.52"><defs><style>.cls-1{fill:#fff;}</style></defs><title>btn-menu_conf</title><g id="Capa_2" data-name="Capa 2"><g id="Capa_1-2" data-name="Capa 1"><path class="cls-1" d="M66.47,116.52H46.1a4.37,4.37,0,0,1-4.3-3.72c-.13-.93-.26-1.87-.38-2.79-.46-3.34-.89-6.49-1.58-9.61a5.75,5.75,0,0,0-2-2.54,33.89,33.89,0,0,0-2.82-2c-.61-.4-1.23-.81-1.87-1.25-2.82-2-4.34-1.83-7.21-.42a80.53,80.53,0,0,1-7.51,3.12l-2.29.87a4.32,4.32,0,0,1-5.33-1.87L.58,78.63a4.35,4.35,0,0,1,1.06-5.57l2.25-1.79c2.42-1.94,4.92-3.94,7.47-5.8,1-.71,1.22-1.14,1.41-3.7a54.36,54.36,0,0,0,0-6.6c-.14-2.89-.47-3.51-1.74-4.41C8.52,49,6.24,47.18,3.82,45.24L1.64,43.49A4.35,4.35,0,0,1,.58,37.93l10.2-17.67a4.32,4.32,0,0,1,5.33-1.88l2.69,1c2.89,1.11,5.88,2.26,8.77,3.54,1.15.51,1.73.49,3.91-.58,1.15-.57,2.22-1.23,3.34-1.92.92-.56,1.86-1.15,2.88-1.7,1.81-1,2.16-1.57,2.29-2.89.32-3.17.83-6.34,1.33-9.41l.45-2.79A4.31,4.31,0,0,1,46.05,0H66.36a4.32,4.32,0,0,1,4.29,3.68c.14.94.29,1.88.44,2.83.5,3.19,1,6.5,1.4,9.8.11.9.31,1.23,2,2.41,1.07.74,1.84,1.2,2.66,1.68.61.36,1.24.74,2,1.25,3,2,4.92,2.08,8.07.49a72.67,72.67,0,0,1,6.88-2.89l2.13-.83a4.32,4.32,0,0,1,5.34,1.87L111.87,38a4.36,4.36,0,0,1-1.08,5.59l-2.49,2c-2.54,2-4.93,3.89-7.39,5.73-1.25,2.17-1.26,11.82,0,14,2.52,1.9,5,3.83,7.54,5.87L110.84,73a4.38,4.38,0,0,1,1.08,5.58L101.72,96.3a4.37,4.37,0,0,1-5.34,1.87l-2.7-1c-3-1.14-6-2.32-9-3.61-1.64-.72-2.2-.48-3,.19-.18.16-.51.41-.94.74-7.8,6-8.75,8.45-8.8,9.25a71.59,71.59,0,0,1-.9,7.15c-.11.66-.21,1.33-.32,2a4.31,4.31,0,0,1-4.28,3.69m-18.92-6H65c0-.21.07-.42.1-.63.37-2.28.71-4.42.84-6.55.27-4.76,5.79-9.58,11.14-13.67.34-.26.59-.45.73-.57,2.73-2.28,5.76-2.64,9.28-1.09,2.84,1.24,5.69,2.34,8.71,3.51l1.39.54L106,76.86l-1.27-1c-2.61-2.07-5.07-4-7.6-5.91S94,62.5,94,58.23s.56-9.69,3.16-11.63,4.88-3.74,7.45-5.77L106,39.75,97.13,24.53l-.85.33A63.88,63.88,0,0,0,90,27.51c-5,2.53-9.24,2.28-14-.82-.68-.45-1.24-.77-1.82-1.12-.87-.52-1.77-1.05-3-1.92C68.92,22.16,67,20.52,66.53,17c-.38-3.18-.88-6.43-1.38-9.57C65.08,7,65,6.48,64.93,6H47.48c-.08.47-.15.94-.23,1.42-.51,3.11-1,6.05-1.28,9-.44,4.35-3,6.27-5.42,7.58-.86.47-1.69,1-2.57,1.52-1.2.74-2.44,1.5-3.84,2.2-2.64,1.29-5.31,2.32-9,.68-2.76-1.21-5.55-2.29-8.5-3.43l-1.37-.53L6.5,39.69l1.08.86c2.35,1.89,4.57,3.67,6.88,5.31,3.67,2.61,4.12,5.76,4.27,9a60,60,0,0,1,0,7.33c-.23,3.06-.67,5.78-3.85,8.11C12.46,72.11,10.12,74,7.63,76c-.38.3-.75.61-1.14.91l8.8,15.21,1-.38c2.46-.93,4.79-1.8,7-2.88,3.68-1.82,7.84-3,13.32.88.58.41,1.15.78,1.7,1.14a38,38,0,0,1,3.34,2.37c1.26,1,3.48,3.17,4.08,5.89.74,3.36,1.2,6.78,1.66,10.09l.18,1.33"/><path class="cls-1" d="M56.24,24.69a33.58,33.58,0,0,0-9,65.91c.49.13,1,.26,1.46.37L49,91c.24.06.51.1.79.16l.27,0,.36.07.4.07a33.5,33.5,0,0,0,5.42.45c1,0,1.95-.06,2.91-.14l1.17-.11.7-.09.33,0,.34,0,.59-.1c.92-.17,1.83-.37,2.73-.62l.16,0a33.57,33.57,0,0,0-8.93-65.93m9,59.63a27.13,27.13,0,0,1-6,1.34h-.08a25.42,25.42,0,0,1-2.91.16,27.56,27.56,0,1,1,9-1.5"/></g></g></svg>