<svg xmlns="http://www.w3.org/2000/svg" viewBox="0 0 248.23 248.23"><defs><style>.cls-1{fill:#3fb1e6;}.cls-2{fill:#fff;}</style></defs><title>menu_products</title><g id="Capa_2" data-name="Capa 2"><g id="Capa_1-2" data-name="Capa 1"><path class="cls-1" d="M233.23,248.23H15a15,15,0,0,1-15-15V15A15,15,0,0,1,15,0H233.23a15,15,0,0,1,15,15V233.23a15,15,0,0,1-15,15"/><path class="cls-2" d="M66.48,128.29c-8.89,0-16.62-3.55-21.2-9.74C41,112.7,39.8,105,42.12,97.37L53.68,59.49a3.7,3.7,0,0,1,3.54-2.61h44.59A3.71,3.71,0,0,1,105.49,61l-3.86,37.87c-1.62,16-17.72,29.47-35.15,29.47M60,64.27,49.18,99.52c-1.66,5.43-.94,10.63,2,14.64,3.23,4.35,8.65,6.75,15.27,6.75,13.57,0,26.57-10.67,27.81-22.84l3.44-33.8Z"/><path class="cls-2" d="M124.12,128.29a30.9,30.9,0,0,1-23-9.86,26.12,26.12,0,0,1-6.81-20.36L98.14,60.2a3.71,3.71,0,0,1,3.68-3.32h44.6a3.7,3.7,0,0,1,3.67,3.32l3.85,37.87a26.12,26.12,0,0,1-6.81,20.36,30.89,30.89,0,0,1-23,9.86m-19-64-3.52,34.55a18.86,18.86,0,0,0,5,14.66,24.41,24.41,0,0,0,35.07,0,18.86,18.86,0,0,0,4.95-14.66l-3.52-34.55Z"/><path class="cls-2" d="M181.75,128.29c-17.43,0-33.53-13.5-35.15-29.47L142.74,61a3.71,3.71,0,0,1,3.67-4.07H191a3.68,3.68,0,0,1,3.53,2.61l11.57,37.88c2.32,7.61,1.17,15.33-3.16,21.18-4.58,6.19-12.31,9.74-21.2,9.74m-31.25-64,3.44,33.8c1.24,12.17,14.24,22.84,27.81,22.84,6.62,0,12-2.4,15.27-6.75,3-4,3.69-9.21,2-14.64L188.28,64.27Z"/><path class="cls-2" d="M189.89,191.35H58.34a3.7,3.7,0,0,1-3.7-3.69V123.58a3.7,3.7,0,0,1,7.39,0V184H186.2V123.58a3.7,3.7,0,0,1,7.39,0v64.08a3.7,3.7,0,0,1-3.7,3.69"/><path class="cls-2" d="M161.17,163.74H87.06a3.69,3.69,0,0,1-3.69-3.69V117.76a3.69,3.69,0,1,1,7.38,0v38.6h66.73V117.83a3.69,3.69,0,0,1,7.38,0v42.22a3.69,3.69,0,0,1-3.69,3.69"/></g></g></svg>