<svg xmlns="http://www.w3.org/2000/svg" viewBox="0 0 248.23 248.23"><defs><style>.cls-1{fill:#3fb1e6;}.cls-2{fill:#fff;}</style></defs><title>menu_services</title><g id="Capa_2" data-name="Capa 2"><g id="Capa_1-2" data-name="Capa 1"><path class="cls-1" d="M233.23,248.23H15a15,15,0,0,1-15-15V15A15,15,0,0,1,15,0H233.23a15,15,0,0,1,15,15V233.23a15,15,0,0,1-15,15"/><path class="cls-2" d="M146.13,171.53H112.38a4.23,4.23,0,0,1-4.21-4.22V149.08l-4.3-4.3a10.81,10.81,0,0,0-4.52-2.73,52.35,52.35,0,0,0-8.82-1.83,51.71,51.71,0,0,0-7.77-.35,21.14,21.14,0,0,0-8.64,2,28.85,28.85,0,0,0-8.71,6.35,42.76,42.76,0,0,0-5.92,8.81c-2.34,4.24-4.54,8.24-9.13,8.48a7.8,7.8,0,0,1-3.94-.84A10.07,10.07,0,0,1,41,155.76a61.61,61.61,0,0,1,7.56-30.58c14.82-26.65,44.75-31.71,52.74-32.6L107,86.5a4.73,4.73,0,0,1,3.38-1.44h37.16l8.12,8.12a12.28,12.28,0,0,0,15.81,1.34l4.43-3.13h23.61a7.74,7.74,0,0,1,7.74,7.73v39a7.75,7.75,0,0,1-7.74,7.74H176l-4-4a10.23,10.23,0,0,0-14.46,0l-7.18,7.18v18.23a4.23,4.23,0,0,1-4.22,4.22m-30.93-7h28.12V147.92a4.19,4.19,0,0,1,1.23-3l8-8a17.28,17.28,0,0,1,24.41,0l1.91,1.91h20.68a.71.71,0,0,0,.71-.71v-39a.7.7,0,0,0-.71-.7H178.18l-2.61,1.84a19.29,19.29,0,0,1-24.84-2.11l-6.06-6.06H111.43l-5.71,6a4.59,4.59,0,0,1-2.89,1.4c-5.64.52-34.42,4.37-48.18,29.1A55.05,55.05,0,0,0,48,155.69a3,3,0,0,0,1.55,2.7,1.21,1.21,0,0,0,.46.14c.69,0,2.42-3.18,3.35-4.86a49.61,49.61,0,0,1,6.91-10.19,35.86,35.86,0,0,1,10.82-7.91,28.22,28.22,0,0,1,11.5-2.73,58.81,58.81,0,0,1,8.8.4,59.79,59.79,0,0,1,10,2.07,18,18,0,0,1,7.48,4.5l5.12,5.12a4.16,4.16,0,0,1,1.24,3ZM109,149.9h0Z"/></g></g></svg>