<svg xmlns="http://www.w3.org/2000/svg" viewBox="0 0 46.42 48.81"><defs><style>.cls-1{fill:#5186c6;}</style></defs><title>plane</title><g id="Capa_2" data-name="Capa 2"><g id="Capa_1-2" data-name="Capa 1"><path class="cls-1" d="M18.73,48.81h0a1,1,0,0,1-.91-.67L13.52,36.58.67,31.84A1,1,0,0,1,.45,30L44.83.17A1,1,0,0,1,46,.16a1,1,0,0,1,.46,1l-6.34,45a1,1,0,0,1-.5.74,1,1,0,0,1-.89.06L23.21,40.77l-3.56,7.46A1,1,0,0,1,18.73,48.81ZM3.24,30.61l11.43,4.22a1,1,0,0,1,.6.61l3.58,9.73L21.78,39a1,1,0,0,1,1.3-.51l15.15,6.07L44.07,3.14Z"/><path class="cls-1" d="M17.67,33.1a1,1,0,0,1-.68-.26,1,1,0,0,1-.08-1.44L44.28.81A1,1,0,0,1,45.8,2.17L18.43,32.76A1,1,0,0,1,17.67,33.1Z"/><rect class="cls-1" x="11.87" y="19.47" width="44.11" height="2.04" transform="translate(-0.98 39.25) rotate(-59.38)"/></g></g></svg>