<svg xmlns="http://www.w3.org/2000/svg" viewBox="0 0 33.35 33.35"><defs><style>.cls-1{fill:#fff;}</style></defs><g id="Capa_2" data-name="Capa 2"><g id="Capa_1-2" data-name="Capa 1"><path class="cls-1" d="M19.22,33.35a11.15,11.15,0,0,1-3.35-.71,16.72,16.72,0,0,0-2-.55,16.56,16.56,0,0,0-2.07-.19,8.42,8.42,0,0,1-4.31-1,8.44,8.44,0,0,1-2.72-3.59,14.18,14.18,0,0,0-1-1.74,14.15,14.15,0,0,0-1.28-1.52,8.39,8.39,0,0,1-2.4-3.82,8.37,8.37,0,0,1,.6-4.38,16.72,16.72,0,0,0,.55-2,16.56,16.56,0,0,0,.19-2.07,8.42,8.42,0,0,1,1-4.31A8.44,8.44,0,0,1,6,4.77a14.18,14.18,0,0,0,1.74-1A14.15,14.15,0,0,0,9.28,2.51,8.39,8.39,0,0,1,13.1.11a8.37,8.37,0,0,1,4.38.6,16.72,16.72,0,0,0,2,.55,16.56,16.56,0,0,0,2.07.19,8.42,8.42,0,0,1,4.31,1A8.44,8.44,0,0,1,28.58,6a15.63,15.63,0,0,0,1,1.74,14.15,14.15,0,0,0,1.28,1.52,8.44,8.44,0,0,1,2.4,3.82,8.37,8.37,0,0,1-.6,4.38,16.72,16.72,0,0,0-.55,2h0a16.56,16.56,0,0,0-.19,2.07,8.42,8.42,0,0,1-1,4.31,8.44,8.44,0,0,1-3.59,2.72,15.63,15.63,0,0,0-1.74,1,14.15,14.15,0,0,0-1.52,1.28,8.39,8.39,0,0,1-3.82,2.4A4.51,4.51,0,0,1,19.22,33.35ZM14.13,1.81a3.49,3.49,0,0,0-.65.06,7.12,7.12,0,0,0-3,2A16.82,16.82,0,0,1,8.79,5.28a16.25,16.25,0,0,1-1.95,1.1A7.07,7.07,0,0,0,4,8.47a7,7,0,0,0-.69,3.42A17.89,17.89,0,0,1,3,14.19a18,18,0,0,1-.61,2.24,7.1,7.1,0,0,0-.56,3.44,7.21,7.21,0,0,0,2,3,15.69,15.69,0,0,1,1.44,1.71,16.25,16.25,0,0,1,1.1,2A7.07,7.07,0,0,0,8.47,29.4a7,7,0,0,0,3.42.69,17.89,17.89,0,0,1,2.3.22,18,18,0,0,1,2.24.61,7.1,7.1,0,0,0,3.44.56,7.21,7.21,0,0,0,3-2,15.69,15.69,0,0,1,1.71-1.44,16.25,16.25,0,0,1,2-1.1,7.07,7.07,0,0,0,2.89-2.09,7,7,0,0,0,.69-3.42,18.07,18.07,0,0,1,.22-2.3h0a18.47,18.47,0,0,1,.61-2.24,7.1,7.1,0,0,0,.56-3.44,7.12,7.12,0,0,0-2-3,16.82,16.82,0,0,1-1.44-1.72A16.25,16.25,0,0,1,27,6.84,7.07,7.07,0,0,0,24.88,4a7,7,0,0,0-3.42-.69A18.07,18.07,0,0,1,19.16,3a18.47,18.47,0,0,1-2.24-.61A9.61,9.61,0,0,0,14.13,1.81Z"/><path class="cls-1" d="M8.5,23.62a.88.88,0,0,1-.71-.35A.9.9,0,0,1,8,22L24.3,9.36a.89.89,0,0,1,1.26.16.9.9,0,0,1-.16,1.27L9.05,23.43A.88.88,0,0,1,8.5,23.62Z"/><path class="cls-1" d="M19.53,26a3.59,3.59,0,1,1,3.59-3.58A3.59,3.59,0,0,1,19.53,26Zm0-5.36a1.78,1.78,0,1,0,1.78,1.78A1.78,1.78,0,0,0,19.53,20.68Z"/><path class="cls-1" d="M13.68,14.48a3.59,3.59,0,1,1,3.59-3.58A3.59,3.59,0,0,1,13.68,14.48Zm0-5.36a1.78,1.78,0,1,0,1.78,1.78A1.78,1.78,0,0,0,13.68,9.12Z"/></g></g></svg>