<svg xmlns="http://www.w3.org/2000/svg" viewBox="0 0 59.34 66.8"><defs><style>.cls-1{fill:#fff;}</style></defs><title>btn-profile_white</title><g id="Capa_2" data-name="Capa 2"><g id="Capa_1-2" data-name="Capa 1"><path class="cls-1" d="M29.24,40.93v4c1.28,0,2.63.06,4,.17,8.41.69,14.86,3.85,19.7,9.66a9.77,9.77,0,0,1,2.4,5.89A2.59,2.59,0,0,1,55,62.37a2.38,2.38,0,0,1-1.61.41c-3.32,0-6.63,0-10,0H6.27a2.87,2.87,0,0,1-1.93-.45A3.2,3.2,0,0,1,4,60.17c.22-2.65,1.56-5,4.5-7.68C14,47.4,20.77,44.93,29.24,44.93v-4m0,0c-8.67,0-16.68,2.35-23.44,8.63C2.81,52.35.4,55.51,0,59.83c-.37,4.49,1.76,7,6.22,7H43.44c3.32,0,6.65,0,10,0,4,0,6.13-2.38,5.92-6.34A13.7,13.7,0,0,0,56,52.2c-5.86-7-13.55-10.36-22.45-11.09-1.46-.12-2.9-.18-4.33-.18"/><path class="cls-1" d="M29.69,4a14.61,14.61,0,0,1,14.5,14.56A14.52,14.52,0,1,1,29.58,4h.11m0-4h-.14a18.62,18.62,0,0,0-18.4,18.59A18.62,18.62,0,0,0,29.65,37h0a18.52,18.52,0,0,0,0-37"/></g></g></svg>