<svg xmlns="http://www.w3.org/2000/svg" viewBox="0 0 995.13 230.79"><defs><style>.cls-1{fill:#2449f2;}.cls-2{fill:#00b8ff;}.cls-3{fill:#fff;}</style></defs><g id="Capa_2" data-name="Capa 2"><g id="Capa_1-2" data-name="Capa 1"><rect class="cls-1" width="995.13" height="230.79" rx="20"/><rect class="cls-2" x="82.16" y="32.11" width="166.57" height="166.57" rx="21.57"/><path class="cls-3" d="M172.25,160a29.59,29.59,0,0,1-8.95-1.9,45.82,45.82,0,0,0-5.37-1.48,44.9,44.9,0,0,0-5.53-.5c-4-.2-8.09-.4-11.53-2.62s-5.46-6-7.28-9.61a41.86,41.86,0,0,0-2.61-4.65,40.38,40.38,0,0,0-3.43-4.08c-2.72-3-5.53-6-6.43-10.2-.86-4,.39-7.92,1.61-11.71a43.33,43.33,0,0,0,1.48-5.36,41.46,41.46,0,0,0,.5-5.54c.2-4,.41-8.09,2.63-11.53s6-5.46,9.61-7.28a38,38,0,0,0,4.64-2.61,40.44,40.44,0,0,0,4.08-3.42c3-2.72,6-5.53,10.2-6.43,4-.87,7.92.39,11.71,1.61a44.2,44.2,0,0,0,5.36,1.47,43.31,43.31,0,0,0,5.54.51c4,.2,8.09.4,11.53,2.62s5.46,6,7.28,9.61a41.86,41.86,0,0,0,2.61,4.65,39.24,39.24,0,0,0,3.43,4.07c2.72,3,5.53,6,6.43,10.2s-.39,7.93-1.61,11.72a43.33,43.33,0,0,0-1.48,5.36h0a43.14,43.14,0,0,0-.51,5.54c-.19,4-.4,8.09-2.62,11.53s-6,5.45-9.61,7.28a38,38,0,0,0-4.64,2.61,39.36,39.36,0,0,0-4.08,3.42c-3,2.72-6,5.53-10.2,6.43A13,13,0,0,1,172.25,160ZM158.62,75.63a8.25,8.25,0,0,0-1.73.17c-2.88.63-5.34,2.88-8,5.27a43.41,43.41,0,0,1-4.59,3.84,44.44,44.44,0,0,1-5.2,2.94C136,89.46,133,91,131.4,93.44s-1.68,5.66-1.86,9.15a48.14,48.14,0,0,1-.57,6.17,48.59,48.59,0,0,1-1.64,6c-1.06,3.33-2.07,6.48-1.48,9.21s2.88,5.35,5.27,8a45.75,45.75,0,0,1,3.84,4.59,43.76,43.76,0,0,1,2.94,5.21c1.6,3.16,3.11,6.14,5.59,7.73s5.65,1.69,9.15,1.86a46.29,46.29,0,0,1,6.16.58,46.85,46.85,0,0,1,6,1.63c3.33,1.07,6.48,2.08,9.22,1.49s5.34-2.88,7.95-5.27a44.56,44.56,0,0,1,4.6-3.84,46,46,0,0,1,5.2-2.95c3.16-1.6,6.14-3.11,7.74-5.58s1.68-5.66,1.85-9.15a49.86,49.86,0,0,1,.58-6.17h0a46.85,46.85,0,0,1,1.63-6c1.07-3.33,2.08-6.48,1.49-9.21s-2.88-5.35-5.27-8a44.45,44.45,0,0,1-3.84-4.59A44.56,44.56,0,0,1,193,89.09c-1.6-3.16-3.11-6.14-5.59-7.74s-5.65-1.68-9.15-1.85a35.88,35.88,0,0,1-12.13-2.21A26.09,26.09,0,0,0,158.62,75.63Z"/><path class="cls-3" d="M143.57,134a2.42,2.42,0,0,1-1.48-4.33l43.74-33.83a2.42,2.42,0,0,1,3,3.83l-43.74,33.83A2.4,2.4,0,0,1,143.57,134Z"/><path class="cls-3" d="M173.09,140.44a9.59,9.59,0,1,1,9.58-9.58A9.6,9.6,0,0,1,173.09,140.44Zm0-14.33a4.75,4.75,0,1,0,4.75,4.75A4.75,4.75,0,0,0,173.09,126.11Z"/><path class="cls-3" d="M157.43,109.52A9.59,9.59,0,1,1,167,99.93,9.6,9.6,0,0,1,157.43,109.52Zm0-14.34a4.75,4.75,0,1,0,4.75,4.75A4.75,4.75,0,0,0,157.43,95.18Z"/></g></g></svg>