<svg xmlns="http://www.w3.org/2000/svg" viewBox="0 0 29.68 53.79"><defs><style>.cls-1{fill:#5186c6;}</style></defs><title>globo</title><g id="Capa_2" data-name="Capa 2"><g id="Capa_1-2" data-name="Capa 1"><path class="cls-1" d="M14.84,46.74a1,1,0,0,1-.9-.52C13.37,45.26,0,22.66,0,14.84a14.84,14.84,0,0,1,29.68,0c0,7.82-13.37,30.42-13.94,31.38A1,1,0,0,1,14.84,46.74Zm0-44.64A12.75,12.75,0,0,0,2.1,14.84C2.1,21,11.8,38.32,14.84,43.6c3-5.28,12.75-22.62,12.75-28.76A12.76,12.76,0,0,0,14.84,2.1Z"/><path class="cls-1" d="M14.84,22.41a7.57,7.57,0,1,1,7.57-7.57A7.58,7.58,0,0,1,14.84,22.41Zm0-13a5.47,5.47,0,1,0,5.47,5.47A5.47,5.47,0,0,0,14.84,9.37Z"/><path class="cls-1" d="M22.3,53.79H7.38a1,1,0,1,1,0-2.09H22.3a1,1,0,1,1,0,2.09Z"/></g></g></svg>