<svg xmlns="http://www.w3.org/2000/svg" viewBox="0 0 112.82 112.82"><defs><style>.cls-1{fill:#fff;}</style></defs><g id="Capa_2" data-name="Capa 2"><g id="Capa_1-2" data-name="Capa 1"><path class="cls-1" d="M56,60.3v4h0c1.28,0,2.62,0,4,.16,8.42.7,14.87,3.86,19.71,9.67A9.67,9.67,0,0,1,82.06,80a2.63,2.63,0,0,1-.33,1.73,2.44,2.44,0,0,1-1.61.41l-10,0H33a3,3,0,0,1-1.93-.45,3.37,3.37,0,0,1-.31-2.18c.22-2.65,1.57-4.94,4.5-7.67C40.72,66.77,47.5,64.3,56,64.3v-4m0,0c-8.68,0-16.69,2.34-23.44,8.63-3,2.79-5.4,5.94-5.76,10.27-.38,4.48,1.76,7,6.22,7H70.17l10,0c4,0,6.13-2.38,5.93-6.35a13.66,13.66,0,0,0-3.32-8.23c-5.85-7-13.55-10.36-22.45-11.09Q58.1,60.3,56,60.3Z"/><path class="cls-1" d="M56.41,23.37a14.48,14.48,0,1,1-.11,0h.11m0-4h-.14a18.52,18.52,0,0,0,.11,37h0a18.52,18.52,0,0,0,0-37Z"/><path class="cls-1" d="M56.41,4A52.41,52.41,0,1,1,4,56.41,52.47,52.47,0,0,1,56.41,4m0-4a56.41,56.41,0,1,0,56.41,56.41A56.4,56.4,0,0,0,56.41,0Z"/></g></g></svg>