<svg xmlns="http://www.w3.org/2000/svg" viewBox="0 0 67.92 56.13"><defs><style>.cls-1{fill:#3692ff;}</style></defs><g id="Capa_2" data-name="Capa 2"><g id="Capa_1-2" data-name="Capa 1"><path class="cls-1" d="M18.2,39.37a2.58,2.58,0,0,1,1.88-2.88l25.41-4.17A13.25,13.25,0,0,1,44.39,30l-6.24,1V21.76h6a12.7,12.7,0,0,1,1-2.5h-7V10.52H48.4L47.63,16a13,13,0,0,1,2.82-2.13l.47-3.33H61l-.74,2a12.69,12.69,0,0,1,2.36.83L64,9.71a1.27,1.27,0,0,0-.15-1.15,1.24,1.24,0,0,0-1-.54H12L9.75.87A1.25,1.25,0,0,0,8.56,0H1.25a1.25,1.25,0,0,0,0,2.5H7.64l8.7,27.84a1.24,1.24,0,0,0,1.19.87,1.57,1.57,0,0,0,.37-.05,1.25,1.25,0,0,0,.82-1.57l-2.45-7.83h8.3L26.21,33,19.61,34a5.06,5.06,0,0,0-3.9,5.6c.22,2,1.49,3.37,3.15,3.37H57.39v-2.5H18.86C18.51,40.51,18.26,39.92,18.2,39.37ZM15.49,19.26l-2.73-8.74H22.92l1.28,8.74ZM35.65,31.4l-7,1.15L27.09,21.76h8.56ZM25.45,10.52h10.2v8.74H26.73Z"/><path class="cls-1" d="M22.52,45.88A5.13,5.13,0,1,0,27.64,51,5.13,5.13,0,0,0,22.52,45.88Zm0,7.75A2.63,2.63,0,1,1,25.14,51,2.63,2.63,0,0,1,22.52,53.63Z"/><path class="cls-1" d="M51,45.88A5.13,5.13,0,1,0,56.16,51,5.13,5.13,0,0,0,51,45.88Zm0,7.75A2.63,2.63,0,1,1,53.66,51,2.63,2.63,0,0,1,51,53.63Z"/><path class="cls-1" d="M57,14.63A10.88,10.88,0,1,0,67.92,25.51,10.89,10.89,0,0,0,57,14.63Zm0,19.82A8.94,8.94,0,1,1,66,25.51,8.95,8.95,0,0,1,57,34.45Z"/><rect class="cls-1" x="52.37" y="24.54" width="9.33" height="1.95"/></g></g></svg>